<?xml version="1.0" encoding="UTF-8" standalone="no"?>
<!DOCTYPE svg PUBLIC "-//W3C//DTD SVG 1.0//EN" "http://www.w3.org/TR/2001/REC-SVG-20010904/DTD/svg10.dtd">

<svg xmlns="http://www.w3.org/2000/svg" xmlns:xlink="http://www.w3.org/1999/xlink" width="22.78cm" height="15.58cm" viewBox="0 0 861 589">
<title></title>
<desc>Created with Enterprise Architect (Build: 1628) 2</desc>

<g style="fill:#FFFFFF;fill-opacity:1.00;">
	 <rect x="0" y="0" width="861" height="589" shape-rendering="auto"/>
</g><g style="stroke-width:1;stroke-linecap:square;stroke-linejoin:miter; fill:#000000;fill-opacity:0.00; stroke:#000000; stroke-opacity:1.00">
  <path d="M 6 6 L 6 583 L 855 583 L 855 6 L 6 6" shape-rendering="auto"/>
</g>
<g style="stroke-width:1;stroke-linecap:square;stroke-linejoin:miter; fill:#FFFFFF;fill-opacity:1.00; stroke:#000000; stroke-opacity:1.00">
  <polygon points="6 26 55 26 68 12 68 6 6 6 6 26" shape-rendering="auto"   style="fill-rule:evenodd;"/>
</g>
<g style="stroke-width:1;stroke-linecap:square;stroke-linejoin:miter; fill:#000000;fill-opacity:1.00; stroke:#000000; stroke-opacity:0.00">
	<text x="11.00" y="19.00" textLength="42" style="font-family:Carlito; font-weight:700; font-style:normal; font-size:10px; fill:#000000;fill-opacity:1.00; stroke:#000000; stroke-opacity:0.00 stroke-width:0; white-space: pre;" xml:space="preserve" transform="rotate(-0.00 11.00 19.00)">stm UML3</text>
</g>
<g style="stroke-width:1;stroke-linecap:round;stroke-linejoin:bevel; fill:#9A8484;fill-opacity:1.00; stroke:#9A8484; stroke-opacity:1.00">
<ellipse cx="207.00" cy="156.00" rx="10.00" ry="10.00" shape-rendering="auto"  />
</g>
<g style="stroke-width:1;stroke-linecap:round;stroke-linejoin:bevel; fill:#595959;fill-opacity:1.00; stroke:#000000; stroke-opacity:0.00">
	<text x="180.00" y="184.00" textLength="22" style="font-family:Carlito; font-weight:0; font-style:normal; font-size:10px; fill:#595959;fill-opacity:1.00; stroke:#000000; stroke-opacity:0.00 stroke-width:0; white-space: pre;" xml:space="preserve" transform="rotate(-0.00 180.00 184.00)">Initial</text>
</g>
<g style="stroke-width:1;stroke-linecap:round;stroke-linejoin:bevel; fill:#F5EDD8;fill-opacity:1.00; stroke:#9A8484; stroke-opacity:1.00">
 <rect x="222" y="40" width="120" height="60" rx="20.00" shape-rendering="auto"  />
</g>
<g style="stroke-width:1;stroke-linecap:round;stroke-linejoin:bevel; fill:#595959;fill-opacity:1.00; stroke:#000000; stroke-opacity:0.00">
	<text x="261.00" y="53.00" textLength="42" style="font-family:Carlito; font-weight:700; font-style:normal; font-size:10px; fill:#595959;fill-opacity:1.00; stroke:#000000; stroke-opacity:0.00 stroke-width:0; white-space: pre;" xml:space="preserve" transform="rotate(-0.00 261.00 53.00)">Convidado</text>
</g>
<g style="stroke-width:1;stroke-linecap:round;stroke-linejoin:bevel; fill:#F5EDD8;fill-opacity:1.00; stroke:#9A8484; stroke-opacity:1.00">
 <rect x="558" y="215" width="120" height="60" rx="20.00" shape-rendering="auto"  />
</g>
<g style="stroke-width:1;stroke-linecap:round;stroke-linejoin:bevel; fill:#595959;fill-opacity:1.00; stroke:#000000; stroke-opacity:0.00">
	<text x="598.00" y="228.00" textLength="40" style="font-family:Carlito; font-weight:700; font-style:normal; font-size:10px; fill:#595959;fill-opacity:1.00; stroke:#000000; stroke-opacity:0.00 stroke-width:0; white-space: pre;" xml:space="preserve" transform="rotate(-0.00 598.00 228.00)">Candidato</text>
</g>
<g style="stroke-width:1;stroke-linecap:round;stroke-linejoin:bevel; fill:#F5EDD8;fill-opacity:1.00; stroke:#9A8484; stroke-opacity:1.00">
 <rect x="153" y="357" width="274" height="60" rx="20.00" shape-rendering="auto"  />
</g>
<g style="stroke-width:1;stroke-linecap:round;stroke-linejoin:bevel; fill:#595959;fill-opacity:1.00; stroke:#000000; stroke-opacity:0.00">
	<text x="279.00" y="370.00" textLength="21" style="font-family:Carlito; font-weight:700; font-style:normal; font-size:10px; fill:#595959;fill-opacity:1.00; stroke:#000000; stroke-opacity:0.00 stroke-width:0; white-space: pre;" xml:space="preserve" transform="rotate(-0.00 279.00 370.00)">Ativo</text>
</g>
<g style="stroke-width:1;stroke-linecap:round;stroke-linejoin:bevel; fill:#F5EDD8;fill-opacity:1.00; stroke:#9A8484; stroke-opacity:1.00">
 <rect x="35" y="223" width="120" height="60" rx="20.00" shape-rendering="auto"  />
</g>
<g style="stroke-width:1;stroke-linecap:round;stroke-linejoin:bevel; fill:#595959;fill-opacity:1.00; stroke:#000000; stroke-opacity:0.00">
	<text x="74.00" y="236.00" textLength="41" style="font-family:Carlito; font-weight:700; font-style:normal; font-size:10px; fill:#595959;fill-opacity:1.00; stroke:#000000; stroke-opacity:0.00 stroke-width:0; white-space: pre;" xml:space="preserve" transform="rotate(-0.00 74.00 236.00)">Cancelado</text>
</g>
<g style="stroke-width:1;stroke-linecap:round;stroke-linejoin:bevel; fill:#F5EDD8;fill-opacity:1.00; stroke:#9A8484; stroke-opacity:1.00">
 <rect x="152" y="496" width="275" height="60" rx="20.00" shape-rendering="auto"  />
</g>
<g style="stroke-width:1;stroke-linecap:round;stroke-linejoin:bevel; fill:#595959;fill-opacity:1.00; stroke:#000000; stroke-opacity:0.00">
	<text x="270.00" y="509.00" textLength="38" style="font-family:Carlito; font-weight:700; font-style:normal; font-size:10px; fill:#595959;fill-opacity:1.00; stroke:#000000; stroke-opacity:0.00 stroke-width:0; white-space: pre;" xml:space="preserve" transform="rotate(-0.00 270.00 509.00)">Suspenso</text>
</g>
<g style="stroke-width:1;stroke-linecap:round;stroke-linejoin:bevel; fill:#F5EDD8;fill-opacity:1.00; stroke:#9A8484; stroke-opacity:1.00">
 <rect x="540" y="61" width="120" height="60" rx="20.00" shape-rendering="auto"  />
</g>
<g style="stroke-width:1;stroke-linecap:round;stroke-linejoin:bevel; fill:#595959;fill-opacity:1.00; stroke:#000000; stroke-opacity:0.00">
	<text x="572.00" y="74.00" textLength="55" style="font-family:Carlito; font-weight:700; font-style:normal; font-size:10px; fill:#595959;fill-opacity:1.00; stroke:#000000; stroke-opacity:0.00 stroke-width:0; white-space: pre;" xml:space="preserve" transform="rotate(-0.00 572.00 74.00)">Sem resposta</text>
</g>
<g style="stroke-width:1;stroke-linecap:round;stroke-linejoin:bevel; fill:#F5EDD8;fill-opacity:1.00; stroke:#9A8484; stroke-opacity:1.00">
 <rect x="508" y="403" width="120" height="60" rx="20.00" shape-rendering="auto"  />
</g>
<g style="stroke-width:1;stroke-linecap:round;stroke-linejoin:bevel; fill:#595959;fill-opacity:1.00; stroke:#000000; stroke-opacity:0.00">
	<text x="548.00" y="416.00" textLength="39" style="font-family:Carlito; font-weight:700; font-style:normal; font-size:10px; fill:#595959;fill-opacity:1.00; stroke:#000000; stroke-opacity:0.00 stroke-width:0; white-space: pre;" xml:space="preserve" transform="rotate(-0.00 548.00 416.00)">Rejeitado</text>
</g>
<g style="stroke-width:1;stroke-linecap:round;stroke-linejoin:bevel; fill:#9A8484;fill-opacity:1.00; stroke:#9A8484; stroke-opacity:1.00">
<ellipse cx="326.00" cy="205.00" rx="10.00" ry="10.00" shape-rendering="auto"  />
</g>
<g style="stroke-width:1;stroke-linecap:round;stroke-linejoin:bevel; fill:#000000;fill-opacity:0.00; stroke:#69738C; stroke-opacity:1.00">
  <path d="M 217 161 L 316 201" shape-rendering="auto"/>
  <path d="M 301 200 L 316 201 L 305 191" shape-rendering="auto"/>
  <path d="M 342 62 L 540 75" shape-rendering="auto"/>
  <path d="M 526 79 L 540 75 L 526 69" shape-rendering="auto"/>
  <path d="M 327 100 L 570 215" shape-rendering="auto"/>
  <path d="M 555 214 L 570 215 L 559 204" shape-rendering="auto"/>
  <path d="M 665 215 L 621 121" shape-rendering="auto"/>
  <path d="M 631 132 L 621 121 L 622 136" shape-rendering="auto"/>
  <path d="M 558 270 L 359 357" shape-rendering="auto"/>
  <path d="M 370 347 L 359 357 L 374 356" shape-rendering="auto"/>
  <path d="M 648 275 L 577 403" shape-rendering="auto"/>
  <path d="M 579 388 L 577 403 L 588 393" shape-rendering="auto"/>
  <path d="M 678 256 L 719 256 L 719 231 L 678 231" shape-rendering="auto"/>
  <path d="M 692 226 L 678 231 L 692 236" shape-rendering="auto"/>
  <path d="M 238 357 L 108 283" shape-rendering="auto"/>
  <path d="M 123 286 L 108 283 L 118 294" shape-rendering="auto"/>
  <path d="M 388 417 L 393 496" shape-rendering="auto"/>
  <path d="M 387 482 L 393 496 L 397 482" shape-rendering="auto"/>
  <path d="M 245 417 L 250 496" shape-rendering="auto"/>
  <path d="M 244 482 L 250 496 L 254 482" shape-rendering="auto"/>
  <path d="M 174 417 L 178 496" shape-rendering="auto"/>
  <path d="M 172 482 L 178 496 L 182 482" shape-rendering="auto"/>
  <path d="M 155 240 L 316 208" shape-rendering="auto"/>
  <path d="M 303 216 L 316 208 L 301 206" shape-rendering="auto"/>
  <path d="M 152 518 L 73 283" shape-rendering="auto"/>
  <path d="M 82 295 L 73 283 L 73 298" shape-rendering="auto"/>
  <path d="M 317 496 L 312 417" shape-rendering="auto"/>
  <path d="M 318 431 L 312 417 L 308 431" shape-rendering="auto"/>
  <path d="M 540 109 L 447 151 A 6.00 -6.00 180.00 0 0 437 157 L 336 204" shape-rendering="auto"/>
  <path d="M 347 194 L 336 204 L 351 203" shape-rendering="auto"/>
  <path d="M 534 403 L 448 323 A 6.00 -6.00 180.00 0 0 440 315 L 331 215" shape-rendering="auto"/>
  <path d="M 345 221 L 331 215 L 338 228" shape-rendering="auto"/>
  <path d="M 321 195 L 290 100" shape-rendering="auto"/>
  <path d="M 299 112 L 290 100 L 290 115" shape-rendering="auto"/>
  <path d="M 336 206 L 558 236" shape-rendering="auto"/>
  <path d="M 543 239 L 558 236 L 545 229" shape-rendering="auto"/>
</g>
<g style="stroke-width:1;stroke-linecap:round;stroke-linejoin:bevel; fill:#595959;fill-opacity:1.00; stroke:#000000; stroke-opacity:0.00">
	<text x="348.00" y="129.00" textLength="77" style="font-family:Carlito; font-weight:0; font-style:normal; font-size:10px; fill:#595959;fill-opacity:1.00; stroke:#000000; stroke-opacity:0.00 stroke-width:0; white-space: pre;" xml:space="preserve" transform="rotate(-0.00 348.00 129.00)">Responde a convite</text>
	<text x="275.00" y="468.00" textLength="75" style="font-family:Carlito; font-weight:0; font-style:normal; font-size:10px; fill:#595959;fill-opacity:1.00; stroke:#000000; stroke-opacity:0.00 stroke-width:0; white-space: pre;" xml:space="preserve" transform="rotate(-0.00 275.00 468.00)">Ativar fornecedor /</text>
	<text x="296.00" y="481.00" textLength="33" style="font-family:Carlito; font-weight:0; font-style:normal; font-size:10px; fill:#595959;fill-opacity:1.00; stroke:#000000; stroke-opacity:0.00 stroke-width:0; white-space: pre;" xml:space="preserve" transform="rotate(-0.00 296.00 481.00)">Notificar</text>
	<text x="612.00" y="166.00" textLength="95" style="font-family:Carlito; font-weight:0; font-style:normal; font-size:10px; fill:#595959;fill-opacity:1.00; stroke:#000000; stroke-opacity:0.00 stroke-width:0; white-space: pre;" xml:space="preserve" transform="rotate(-0.00 612.00 166.00)">Sem resposta ao pedido</text>
	<text x="617.00" y="179.00" textLength="86" style="font-family:Carlito; font-weight:0; font-style:normal; font-size:10px; fill:#595959;fill-opacity:1.00; stroke:#000000; stroke-opacity:0.00 stroke-width:0; white-space: pre;" xml:space="preserve" transform="rotate(-0.00 617.00 179.00)">[&gt; 48 horas] /Notificar</text>
	<text x="44.00" y="350.00" textLength="85" style="font-family:Carlito; font-weight:0; font-style:normal; font-size:10px; fill:#595959;fill-opacity:1.00; stroke:#000000; stroke-opacity:0.00 stroke-width:0; white-space: pre;" xml:space="preserve" transform="rotate(-0.00 44.00 350.00)">Cancelar fornecedor /</text>
	<text x="70.00" y="363.00" textLength="33" style="font-family:Carlito; font-weight:0; font-style:normal; font-size:10px; fill:#595959;fill-opacity:1.00; stroke:#000000; stroke-opacity:0.00 stroke-width:0; white-space: pre;" xml:space="preserve" transform="rotate(-0.00 70.00 363.00)">Notificar</text>
	<text x="489.00" y="285.00" textLength="51" style="font-family:Carlito; font-weight:0; font-style:normal; font-size:10px; fill:#595959;fill-opacity:1.00; stroke:#000000; stroke-opacity:0.00 stroke-width:0; white-space: pre;" xml:space="preserve" transform="rotate(-0.00 489.00 285.00)">[Candidatura</text>
	<text x="487.00" y="298.00" textLength="54" style="font-family:Carlito; font-weight:0; font-style:normal; font-size:10px; fill:#595959;fill-opacity:1.00; stroke:#000000; stroke-opacity:0.00 stroke-width:0; white-space: pre;" xml:space="preserve" transform="rotate(-0.00 487.00 298.00)">OK] /Notificar</text>
	<text x="366.00" y="443.00" textLength="42" style="font-family:Carlito; font-weight:0; font-style:normal; font-size:10px; fill:#595959;fill-opacity:1.00; stroke:#000000; stroke-opacity:0.00 stroke-width:0; white-space: pre;" xml:space="preserve" transform="rotate(-0.00 366.00 443.00)">Suspender</text>
	<text x="346.00" y="456.00" textLength="82" style="font-family:Carlito; font-weight:0; font-style:normal; font-size:10px; fill:#595959;fill-opacity:1.00; stroke:#000000; stroke-opacity:0.00 stroke-width:0; white-space: pre;" xml:space="preserve" transform="rotate(-0.00 346.00 456.00)">fornecedor /Notificar</text>
	<text x="211.00" y="430.00" textLength="75" style="font-family:Carlito; font-weight:0; font-style:normal; font-size:10px; fill:#595959;fill-opacity:1.00; stroke:#000000; stroke-opacity:0.00 stroke-width:0; white-space: pre;" xml:space="preserve" transform="rotate(-0.00 211.00 430.00)">Entrega recusada /</text>
	<text x="232.00" y="443.00" textLength="33" style="font-family:Carlito; font-weight:0; font-style:normal; font-size:10px; fill:#595959;fill-opacity:1.00; stroke:#000000; stroke-opacity:0.00 stroke-width:0; white-space: pre;" xml:space="preserve" transform="rotate(-0.00 232.00 443.00)">Notificar</text>
	<text x="395.00" y="225.00" textLength="97" style="font-family:Carlito; font-weight:0; font-style:normal; font-size:10px; fill:#595959;fill-opacity:1.00; stroke:#000000; stroke-opacity:0.00 stroke-width:0; white-space: pre;" xml:space="preserve" transform="rotate(-0.00 395.00 225.00)">Candidatura espontânea</text>
	<text x="580.00" y="321.00" textLength="51" style="font-family:Carlito; font-weight:0; font-style:normal; font-size:10px; fill:#595959;fill-opacity:1.00; stroke:#000000; stroke-opacity:0.00 stroke-width:0; white-space: pre;" xml:space="preserve" transform="rotate(-0.00 580.00 321.00)">[Candidatura</text>
	<text x="569.00" y="334.00" textLength="73" style="font-family:Carlito; font-weight:0; font-style:normal; font-size:10px; fill:#595959;fill-opacity:1.00; stroke:#000000; stroke-opacity:0.00 stroke-width:0; white-space: pre;" xml:space="preserve" transform="rotate(-0.00 569.00 334.00)">inválida] /Notificar</text>
	<text x="137.00" y="322.00" textLength="85" style="font-family:Carlito; font-weight:0; font-style:normal; font-size:10px; fill:#595959;fill-opacity:1.00; stroke:#000000; stroke-opacity:0.00 stroke-width:0; white-space: pre;" xml:space="preserve" transform="rotate(-0.00 137.00 322.00)">Cancelar fornecedor /</text>
	<text x="163.00" y="335.00" textLength="33" style="font-family:Carlito; font-weight:0; font-style:normal; font-size:10px; fill:#595959;fill-opacity:1.00; stroke:#000000; stroke-opacity:0.00 stroke-width:0; white-space: pre;" xml:space="preserve" transform="rotate(-0.00 163.00 335.00)">Notificar</text>
	<text x="724.00" y="246.00" textLength="91" style="font-family:Carlito; font-weight:0; font-style:normal; font-size:10px; fill:#595959;fill-opacity:1.00; stroke:#000000; stroke-opacity:0.00 stroke-width:0; white-space: pre;" xml:space="preserve" transform="rotate(-0.00 724.00 246.00)">Pedir nova candidatura</text>
	<text x="144.00" y="460.00" textLength="58" style="font-family:Carlito; font-weight:0; font-style:normal; font-size:10px; fill:#595959;fill-opacity:1.00; stroke:#000000; stroke-opacity:0.00 stroke-width:0; white-space: pre;" xml:space="preserve" transform="rotate(-0.00 144.00 460.00)">Falhar entrega</text>
	<text x="155.00" y="473.00" textLength="37" style="font-family:Carlito; font-weight:0; font-style:normal; font-size:10px; fill:#595959;fill-opacity:1.00; stroke:#000000; stroke-opacity:0.00 stroke-width:0; white-space: pre;" xml:space="preserve" transform="rotate(-0.00 155.00 473.00)">/Notificar</text>
	<text x="382.00" y="45.00" textLength="92" style="font-family:Carlito; font-weight:0; font-style:normal; font-size:10px; fill:#595959;fill-opacity:1.00; stroke:#000000; stroke-opacity:0.00 stroke-width:0; white-space: pre;" xml:space="preserve" transform="rotate(-0.00 382.00 45.00)">Sem resposta a convite</text>
	<text x="385.00" y="58.00" textLength="86" style="font-family:Carlito; font-weight:0; font-style:normal; font-size:10px; fill:#595959;fill-opacity:1.00; stroke:#000000; stroke-opacity:0.00 stroke-width:0; white-space: pre;" xml:space="preserve" transform="rotate(-0.00 385.00 58.00)">[&gt; 72 horas] /Notificar</text>
	<text x="275.00" y="151.00" textLength="64" style="font-family:Carlito; font-weight:0; font-style:normal; font-size:10px; fill:#595959;fill-opacity:1.00; stroke:#000000; stroke-opacity:0.00 stroke-width:0; white-space: pre;" xml:space="preserve" transform="rotate(-0.00 275.00 151.00)">Convite enviado</text>
</g>
</svg>
